<?xml version="1.0" standalone="no"?>
<!DOCTYPE svg PUBLIC "-//W3C//DTD SVG 20010904//EN"
 "http://www.w3.org/TR/2001/REC-SVG-20010904/DTD/svg10.dtd">
<svg version="1.0" xmlns="http://www.w3.org/2000/svg"
 width="1280.000000pt" height="1280.000000pt" viewBox="0 0 1280.000000 1280.000000"
 preserveAspectRatio="xMidYMid meet">

<g transform="translate(0.000000,1280.000000) scale(0.100000,-0.100000)"
fill="#000000" stroke="none">
<path d="M5975 12674 c-22 -2 -103 -8 -180 -14 -635 -49 -1352 -240 -1995
-533 -718 -328 -1434 -862 -1968 -1470 -425 -483 -748 -987 -1000 -1558 -361
-817 -534 -1725 -502 -2636 16 -442 53 -722 152 -1143 78 -335 163 -603 286
-907 l57 -143 5490 3 5490 2 41 95 c231 536 403 1243 454 1865 13 156 12 638
0 830 -57 848 -279 1640 -667 2385 -313 600 -622 1021 -1092 1490 -649 647
-1375 1101 -2266 1415 -424 149 -850 244 -1350 301 -131 15 -840 28 -950 18z
m3166 -4386 c261 -304 498 -579 527 -612 28 -32 52 -67 52 -78 0 -20 -184
-454 -202 -475 -6 -7 -18 -13 -28 -13 -11 0 -157 164 -385 430 -202 237 -370
430 -373 430 -4 -1 -30 -58 -57 -128 -206 -523 -1000 -2492 -1005 -2492 -3 0
-58 52 -122 115 -118 116 -145 135 -199 135 -52 0 -92 -25 -180 -113 -74 -74
-93 -88 -144 -102 -67 -20 -134 -16 -192 11 -21 10 -73 53 -115 96 -143 145
-206 145 -343 3 -94 -97 -138 -120 -235 -119 -96 0 -121 14 -230 120 -47 45
-98 87 -113 93 -37 14 -143 14 -170 0 -12 -6 -59 -47 -103 -90 -98 -95 -145
-118 -235 -119 -90 0 -145 29 -242 130 -58 59 -88 82 -118 90 -72 20 -104 6
-204 -91 -106 -103 -155 -129 -240 -129 -85 0 -134 26 -240 129 -70 67 -100
90 -128 95 -67 13 -107 -7 -193 -94 -104 -106 -159 -134 -251 -128 -92 5 -133
28 -221 119 -73 76 -126 109 -175 109 -30 0 -47 18 -47 50 0 36 18 50 65 50
65 -1 123 -34 215 -125 90 -89 118 -105 179 -105 48 0 87 26 177 117 87 88
128 108 219 107 91 0 138 -24 230 -119 77 -81 117 -105 169 -105 57 0 86 17
166 99 98 101 143 125 235 126 91 0 136 -23 240 -125 91 -88 109 -100 159
-100 58 0 87 17 176 104 114 112 133 121 245 121 125 0 153 -12 259 -115 105
-100 120 -110 175 -110 62 0 84 13 168 98 97 99 146 125 233 126 92 1 141 -25
237 -122 82 -84 111 -102 170 -102 54 0 93 24 171 105 82 85 110 102 195 119
l61 13 77 189 c42 104 174 432 294 729 119 297 330 819 467 1160 137 341 252
626 255 632 4 10 -374 13 -1858 15 l-1864 3 0 25 0 25 1876 3 1876 2 46 118
c25 64 49 125 53 135 6 16 -92 17 -1964 17 -1374 0 -1973 3 -1977 11 -4 5 -4
21 -1 35 l6 24 2004 0 2004 0 473 -552z m-1956 52 c11 -12 15 -28 12 -42 -4
-13 -133 -336 -288 -718 -154 -382 -373 -924 -486 -1205 -113 -280 -212 -522
-219 -537 -24 -46 -94 -34 -94 15 0 10 57 159 126 330 186 460 343 850 619
1537 136 338 254 621 263 628 23 17 46 15 67 -8z m-795 -10 c11 -11 20 -24 20
-30 0 -5 -115 -294 -256 -642 -140 -348 -356 -883 -479 -1188 -262 -650 -262
-650 -282 -672 -23 -26 -62 -23 -72 4 -13 36 -24 5 276 748 122 301 499 1236
635 1577 58 145 87 204 102 211 30 15 34 14 56 -8z m-782 -12 c20 -20 14 -53
-32 -165 -68 -168 -268 -663 -586 -1453 -161 -399 -310 -768 -331 -820 -38
-91 -58 -120 -85 -120 -20 0 -44 30 -44 54 0 13 49 144 109 292 60 148 283
701 496 1229 213 528 391 968 397 978 10 20 58 23 76 5z m2390 -46 c2 -12 -80
-227 -182 -479 -102 -252 -272 -674 -379 -938 -107 -264 -247 -612 -312 -773
-65 -162 -124 -300 -132 -308 -30 -29 -83 -11 -83 28 0 11 85 229 189 486 104
257 322 798 484 1202 163 404 303 752 312 773 8 21 26 42 38 46 28 11 61 -8
65 -37z m-3190 26 c27 -27 34 -8 -383 -1038 -46 -113 -165 -407 -265 -655
-100 -247 -216 -533 -258 -633 -81 -196 -101 -224 -143 -202 -40 22 -58 -29
329 935 385 961 635 1572 649 1588 19 20 54 22 71 5z m2710 -180 c-6 -47 -820
-2087 -836 -2092 -19 -8 -42 4 -42 22 0 9 73 198 161 422 89 223 272 682 406
1020 135 338 249 625 254 638 6 15 17 22 35 22 24 0 26 -3 22 -32z m-2390 -13
c1 -11 -99 -272 -223 -580 -125 -308 -306 -756 -402 -995 -97 -239 -183 -452
-191 -472 -21 -53 -72 -65 -72 -18 0 11 59 165 130 342 72 178 250 618 395
978 328 816 309 772 337 768 14 -2 24 -11 26 -23z m1582 3 c0 -23 -792 -2017
-816 -2055 -20 -32 -54 -31 -54 1 0 14 89 249 199 523 109 274 287 723 396
998 109 275 204 512 212 528 18 35 63 39 63 5z m-800 -22 c0 -13 -41 -123 -91
-247 -197 -485 -265 -654 -478 -1184 -122 -302 -229 -567 -237 -587 -19 -42
-41 -55 -61 -35 -16 16 -7 42 147 422 56 138 207 513 337 835 328 817 323 804
340 817 21 16 43 5 43 -21z"/>
<path d="M2433 3766 c-201 -66 -331 -343 -243 -516 24 -47 79 -94 129 -109 52
-15 157 -13 205 4 149 53 258 215 259 385 0 114 -34 179 -118 223 -50 26 -172
33 -232 13z m132 -60 c60 -26 83 -103 65 -224 -17 -110 -53 -193 -104 -240
-52 -48 -91 -59 -139 -38 -63 26 -87 104 -68 225 26 166 105 279 204 290 4 1
23 -5 42 -13z"/>
<path d="M3125 3763 c-125 -45 -214 -147 -251 -288 -31 -114 -12 -206 56 -276
51 -54 93 -69 187 -69 135 0 252 79 320 218 37 73 38 80 38 181 0 98 -2 109
-27 148 -42 64 -104 96 -197 100 -55 3 -90 -1 -126 -14z m170 -83 c27 -28 30
-37 33 -109 5 -94 -9 -167 -47 -247 -51 -108 -136 -157 -203 -117 -49 29 -63
65 -62 163 1 151 60 285 144 328 55 28 93 23 135 -18z"/>
<path d="M3840 3771 c-126 -41 -219 -138 -261 -272 -45 -144 -12 -274 85 -334
95 -58 250 -44 351 33 150 114 212 353 125 484 -43 65 -97 91 -195 95 -44 1
-91 -1 -105 -6z m147 -83 c35 -33 46 -82 40 -172 -14 -186 -97 -318 -202 -320
-84 -2 -121 63 -112 198 9 146 70 270 151 307 48 23 90 18 123 -13z"/>
<path d="M5079 3764 c-61 -18 -99 -57 -99 -100 0 -40 32 -74 71 -74 22 0 30 6
38 33 32 97 131 127 184 55 22 -29 34 -118 23 -163 -6 -25 -7 -25 -110 -25
-99 0 -104 -1 -110 -22 -12 -47 -11 -48 94 -48 114 0 112 3 79 -86 -25 -66
-83 -128 -128 -137 -64 -13 -141 47 -141 111 0 29 -37 30 -74 1 -56 -44 -20
-131 69 -165 68 -25 203 -16 272 19 69 35 120 89 154 162 94 198 47 395 -105
440 -61 19 -156 18 -217 -1z"/>
<path d="M7221 3764 c-233 -82 -351 -404 -207 -562 40 -45 95 -65 188 -70 76
-4 92 -2 141 21 38 17 61 35 71 56 30 56 15 99 -20 59 -46 -51 -142 -72 -209
-44 -53 22 -75 67 -75 152 0 191 117 367 226 340 28 -7 54 -56 54 -102 0 -25
2 -26 38 -20 54 10 86 37 90 75 4 42 -20 79 -63 97 -45 19 -178 17 -234 -2z"/>
<path d="M4576 3703 c-4 -38 -10 -94 -13 -126 l-6 -58 34 3 c33 3 35 6 85 126
l52 122 -73 0 -73 0 -6 -67z"/>
<path d="M4770 3713 c0 -32 -3 -88 -7 -125 l-6 -68 35 0 c32 0 35 3 55 58 11
31 32 87 46 125 l26 67 -74 0 -75 0 0 -57z"/>
<path d="M5570 3745 c0 -20 5 -25 24 -25 51 0 51 -13 -2 -260 -52 -244 -63
-270 -112 -270 -22 0 -29 -6 -32 -25 l-5 -25 162 0 c139 0 164 2 169 16 11 28
6 34 -26 34 -57 0 -63 9 -49 80 22 111 21 110 98 110 80 0 128 12 174 43 94
63 118 202 48 281 -47 55 -97 66 -286 66 l-163 0 0 -25z m305 -59 c31 -31 40
-83 25 -145 -15 -65 -46 -93 -110 -99 -27 -2 -50 -1 -50 4 0 5 12 66 26 137
l27 127 29 0 c17 0 39 -10 53 -24z"/>
<path d="M6210 3503 c-85 -148 -165 -278 -177 -290 -12 -13 -31 -23 -43 -23
-11 0 -20 -4 -20 -9 0 -5 -3 -16 -6 -25 -5 -14 9 -16 114 -16 l120 0 4 25 c4
19 1 25 -13 25 -28 0 -49 11 -49 26 0 7 12 38 27 69 l27 55 107 0 107 0 7 -62
c6 -53 5 -63 -11 -75 -10 -7 -28 -13 -40 -13 -20 0 -34 -17 -34 -41 0 -5 65
-9 149 -9 l149 0 4 25 c4 19 1 25 -12 25 -39 0 -48 30 -87 305 l-39 270 -64 3
-65 2 -155 -267z m178 18 c6 -58 9 -108 6 -113 -3 -4 -39 -8 -80 -8 -57 0 -75
3 -72 13 7 29 123 226 129 219 3 -4 11 -54 17 -111z"/>
<path d="M7563 3685 c-11 -46 -18 -87 -15 -90 3 -3 17 -5 32 -5 23 0 30 7 44
45 22 56 48 75 103 75 34 0 43 -4 43 -17 -1 -10 -23 -121 -49 -247 -52 -244
-57 -256 -113 -256 -23 0 -28 -4 -28 -25 l0 -25 155 0 155 0 0 25 c0 19 -5 25
-22 25 -54 1 -54 1 3 269 l52 251 44 0 c25 0 54 -5 65 -11 18 -10 20 -17 14
-60 l-7 -49 35 0 34 0 12 73 c6 39 14 80 16 90 5 16 -13 17 -273 17 l-279 0
-21 -85z"/>
<path d="M8363 3758 c-6 -7 -77 -128 -158 -268 -81 -140 -157 -265 -168 -277
-11 -13 -30 -23 -43 -23 -15 0 -23 -7 -26 -25 l-5 -25 118 0 c66 0 119 4 119
9 0 5 3 16 6 25 5 12 0 16 -19 16 -48 0 -53 24 -20 88 l30 57 105 3 105 3 7
-32 c16 -84 3 -119 -46 -119 -15 0 -28 -4 -28 -9 0 -5 -3 -16 -6 -25 -5 -14
11 -16 145 -16 96 0 151 4 151 10 0 6 11 3 25 -6 39 -25 99 -13 142 28 60 57
150 269 229 536 4 14 104 17 104 3 0 -5 -23 -117 -50 -248 -53 -252 -62 -273
-115 -273 -21 0 -35 -17 -35 -41 0 -5 67 -9 154 -9 131 0 155 2 160 16 11 28
7 34 -23 34 -16 0 -33 6 -38 13 -11 13 76 447 96 486 6 10 28 23 48 28 28 6
39 14 41 31 l3 22 -244 0 -245 0 -4 -25 c-4 -21 -1 -25 18 -25 35 0 54 -10 54
-30 0 -28 -88 -278 -126 -357 -47 -99 -100 -138 -124 -93 -6 11 -17 20 -24 20
-18 0 -46 -33 -46 -53 0 -24 -27 -21 -44 6 -8 12 -30 139 -52 290 l-37 267
-62 0 c-38 0 -66 -5 -72 -12z m36 -330 l1 -28 -80 0 c-44 0 -80 3 -80 6 0 4
30 61 68 128 l67 121 12 -100 c6 -55 12 -112 12 -127z"/>
<path d="M9408 3745 c-4 -20 -1 -25 16 -25 12 0 30 -6 39 -12 16 -12 13 -30
-33 -248 -53 -250 -62 -270 -116 -270 -13 0 -24 -4 -24 -9 0 -5 -3 -16 -6 -25
-5 -14 15 -16 182 -16 106 0 207 5 229 11 87 24 144 99 145 187 0 97 -58 149
-180 159 -80 7 -77 2 -54 106 22 97 27 104 77 114 33 7 43 13 45 31 3 22 3 22
-156 22 l-160 0 -4 -25z m253 -331 c43 -39 31 -144 -22 -188 -23 -20 -42 -26
-75 -26 -38 0 -45 3 -40 18 6 22 46 210 46 218 0 12 73 -5 91 -22z"/>
<path d="M10036 3703 c-4 -38 -10 -94 -13 -126 l-6 -58 34 3 c33 3 35 6 85
126 l52 122 -73 0 -73 0 -6 -67z"/>
<path d="M10230 3713 c0 -32 -3 -88 -7 -125 l-6 -68 35 0 c32 0 35 3 55 58 11
31 32 87 46 125 l26 67 -74 0 -75 0 0 -57z"/>
<path d="M1960 2561 c0 -23 328 -324 575 -527 269 -222 387 -304 730 -509 547
-327 1063 -534 1700 -684 1224 -286 2449 -185 3640 302 412 168 641 291 1065
573 331 219 565 412 860 708 l145 146 -4358 0 c-2433 0 -4357 -4 -4357 -9z"/>
</g>
</svg>
