<svg width="741" height="372" viewBox="0 0 741 372" fill="none" xmlns="http://www.w3.org/2000/svg">
<path d="M130 131.619C130 130.118 131.108 128.849 132.595 128.646L214.595 117.464C216.396 117.219 218 118.619 218 120.437V244.381C218 245.882 216.892 247.151 215.405 247.354L133.405 258.536C131.604 258.781 130 257.381 130 255.563V131.619Z" fill="black"/>
<path d="M136.854 117.69C137.427 117.083 138.227 116.743 139.061 116.75L215.572 117.438C218.199 117.461 219.529 120.61 217.715 122.51L84.8862 261.572C84.3202 262.165 83.5363 262.5 82.7168 262.5L6.96289 262.5C4.33084 262.5 2.97467 259.352 4.78252 257.439L136.854 117.69Z" fill="#BF6505"/>
<path d="M136.854 117.69C137.427 117.083 138.227 116.743 139.061 116.75L215.572 117.438C218.199 117.461 219.529 120.61 217.715 122.51L84.8862 261.572C84.3202 262.165 83.5363 262.5 82.7168 262.5L6.96289 262.5C4.33084 262.5 2.97467 259.352 4.78252 257.439L136.854 117.69Z" fill="#BF6505"/>
<path d="M321.611 48.8829C322.178 48.2769 322.971 47.933 323.801 47.933L402.363 47.933C405.002 47.933 406.355 51.0949 404.533 53.0041L207.886 259.071C207.32 259.664 206.536 260 205.716 260L130.917 260C128.292 260 126.933 256.866 128.727 254.95L321.611 48.8829Z" fill="#BF6505"/>
<path d="M321.611 48.8829C322.178 48.2769 322.971 47.933 323.801 47.933L402.363 47.933C405.002 47.933 406.355 51.0949 404.533 53.0041L207.886 259.071C207.32 259.664 206.536 260 205.716 260L130.917 260C128.292 260 126.933 256.866 128.727 254.95L321.611 48.8829Z" fill="#BF6505"/>
<path d="M450.612 48.8767C451.179 48.2745 451.969 47.933 452.796 47.933L534.414 47.933C537.064 47.933 538.413 51.118 536.568 53.021L334.884 261.088C334.319 261.671 333.542 262 332.73 262L256.944 262C254.315 262 252.957 258.858 254.759 256.944L450.612 48.8767Z" fill="#BF6505"/>
<path d="M450.612 48.8767C451.179 48.2745 451.969 47.933 452.796 47.933L534.414 47.933C537.064 47.933 538.413 51.118 536.568 53.021L334.884 261.088C334.319 261.671 333.542 262 332.73 262L256.944 262C254.315 262 252.957 258.858 254.759 256.944L450.612 48.8767Z" fill="black"/>
<path d="M450.96 52.9409C449.11 51.0372 450.462 47.8453 453.117 47.8501L534.725 47.9977C535.54 47.9992 536.319 48.3318 536.883 48.9191L736.12 256.259C737.952 258.165 736.601 261.337 733.957 261.337L654.768 261.337C653.957 261.337 653.181 261.009 652.616 260.428L450.96 52.9409Z" fill="#BF6505"/>
<path d="M450.96 52.9409C449.11 51.0372 450.462 47.8453 453.117 47.8501L534.725 47.9977C535.54 47.9992 536.319 48.3318 536.883 48.9191L736.12 256.259C737.952 258.165 736.601 261.337 733.957 261.337L654.768 261.337C653.957 261.337 653.181 261.009 652.616 260.428L450.96 52.9409Z" fill="#BF6505"/>
<path d="M46.3018 317.167C43.4307 317.167 40.5742 317.577 37.7324 318.397C34.9199 319.218 32.166 320.199 29.4707 321.342L25.1641 310.355C28.2988 308.949 31.6387 307.851 35.1836 307.06C38.7285 306.239 42.5225 305.829 46.5654 305.829C51.2822 305.829 55.4863 306.576 59.1777 308.07C62.8984 309.535 66.0332 311.688 68.582 314.53C71.1601 317.372 73.1084 320.844 74.4268 324.945C75.7744 329.047 76.4482 333.72 76.4482 338.964C76.4482 345.556 75.335 351.327 73.1084 356.278C70.9111 361.2 67.5127 365.038 62.9131 367.792C58.3135 370.517 52.4394 371.879 45.291 371.879C41.5996 371.879 38.2744 371.615 35.3154 371.088C32.3857 370.59 29.3828 369.755 26.3066 368.583V357.157C29.7344 358.241 32.8984 359.076 35.7988 359.662C38.7285 360.248 41.6289 360.541 44.5 360.541C47.2539 360.541 49.6855 360.204 51.7949 359.53C53.9336 358.827 55.7353 357.802 57.2002 356.454C58.6943 355.077 59.8516 353.378 60.6719 351.356C61.5215 349.306 62.0049 346.918 62.1221 344.193H34.2607V333.031H62.0342C61.9463 330.512 61.5215 328.285 60.7598 326.352C59.998 324.389 58.9287 322.719 57.5518 321.342C56.1748 319.965 54.5342 318.925 52.6299 318.222C50.7549 317.519 48.6455 317.167 46.3018 317.167ZM137.508 348.192H121.204V337.909H137.508C140.027 337.909 142.078 337.499 143.66 336.679C145.242 335.829 146.399 334.657 147.132 333.163C147.864 331.669 148.23 329.984 148.23 328.109C148.23 326.205 147.864 324.433 147.132 322.792C146.399 321.151 145.242 319.833 143.66 318.837C142.078 317.841 140.027 317.343 137.508 317.343H125.774V371H112.591V307.016H137.508C142.517 307.016 146.809 307.924 150.384 309.74C153.987 311.527 156.741 314.003 158.645 317.167C160.55 320.331 161.502 323.949 161.502 328.021C161.502 332.152 160.55 335.727 158.645 338.744C156.741 341.762 153.987 344.091 150.384 345.731C146.809 347.372 142.517 348.192 137.508 348.192ZM221.814 317.958L204.412 371H190.393L214.168 307.016H223.088L221.814 317.958ZM236.272 371L218.826 317.958L217.42 307.016H226.428L250.335 371H236.272ZM235.481 347.182V357.509H201.687V347.182H235.481Z" fill="#C46200"/>
<path d="M351.769 349.774H364.909C364.645 354.081 363.459 357.904 361.349 361.244C359.269 364.584 356.354 367.191 352.604 369.066C348.883 370.941 344.401 371.879 339.157 371.879C335.055 371.879 331.379 371.176 328.127 369.77C324.875 368.334 322.091 366.283 319.777 363.617C317.492 360.951 315.749 357.729 314.547 353.949C313.346 350.17 312.746 345.937 312.746 341.249V336.811C312.746 332.123 313.361 327.89 314.591 324.11C315.851 320.302 317.638 317.064 319.953 314.398C322.296 311.732 325.094 309.682 328.346 308.246C331.598 306.811 335.231 306.093 339.245 306.093C344.577 306.093 349.074 307.06 352.736 308.993C356.427 310.927 359.284 313.593 361.305 316.991C363.356 320.39 364.587 324.257 364.997 328.593H351.813C351.667 326.015 351.154 323.832 350.275 322.045C349.396 320.229 348.063 318.866 346.276 317.958C344.518 317.021 342.174 316.552 339.245 316.552C337.047 316.552 335.129 316.962 333.488 317.782C331.847 318.603 330.47 319.848 329.357 321.518C328.244 323.188 327.409 325.297 326.852 327.846C326.325 330.365 326.061 333.324 326.061 336.723V341.249C326.061 344.56 326.31 347.475 326.808 349.994C327.306 352.484 328.068 354.594 329.093 356.322C330.148 358.021 331.496 359.311 333.136 360.189C334.806 361.039 336.813 361.464 339.157 361.464C341.911 361.464 344.181 361.024 345.968 360.146C347.755 359.267 349.118 357.963 350.055 356.234C351.022 354.506 351.593 352.353 351.769 349.774ZM435.024 307.016V371H421.885V307.016H435.024ZM454.712 307.016V317.343H402.505V307.016H454.712ZM521.542 317.958L504.14 371H490.121L513.896 307.016H522.817L521.542 317.958ZM536 371L518.554 317.958L517.148 307.016H526.156L550.063 371H536ZM535.209 347.182V357.509H501.415V347.182H535.209ZM626.907 307.016V317.343H595.091V307.016H626.907ZM636.312 307.016V371H623.128V307.016H636.312ZM593.421 307.016H606.561L604.935 339.14C604.7 343.944 604.246 348.119 603.572 351.664C602.928 355.209 602.049 358.227 600.936 360.717C599.822 363.178 598.445 365.17 596.805 366.693C595.193 368.188 593.289 369.286 591.092 369.989C588.895 370.663 586.39 371 583.577 371H580.325V360.717L581.995 360.585C583.431 360.438 584.69 360.058 585.774 359.442C586.858 358.827 587.781 357.904 588.543 356.674C589.334 355.443 589.979 353.876 590.477 351.972C591.004 350.038 591.414 347.68 591.707 344.896C592.029 342.113 592.249 338.861 592.366 335.141L593.421 307.016ZM683.757 330.351H698.698C703.737 330.351 708.073 331.186 711.706 332.855C715.339 334.525 718.137 336.869 720.099 339.887C722.062 342.904 723.044 346.42 723.044 350.434C723.044 353.48 722.487 356.264 721.374 358.783C720.261 361.273 718.635 363.441 716.496 365.287C714.387 367.104 711.838 368.51 708.849 369.506C705.861 370.502 702.477 371 698.698 371H675.143V307.016H688.371V360.717H698.698C701.218 360.717 703.298 360.248 704.938 359.311C706.579 358.373 707.809 357.128 708.63 355.575C709.479 353.993 709.904 352.25 709.904 350.346C709.904 348.529 709.479 346.889 708.63 345.424C707.809 343.93 706.579 342.758 704.938 341.908C703.298 341.059 701.218 340.634 698.698 340.634H683.757V330.351Z" fill="black"/>
</svg>
